<?xml version="1.0" standalone="no"?><!DOCTYPE svg PUBLIC "-//W3C//DTD SVG 1.1//EN" "http://www.w3.org/Graphics/SVG/1.1/DTD/svg11.dtd"><svg t="1596674898032" class="icon" viewBox="0 0 1024 1024" version="1.1" xmlns="http://www.w3.org/2000/svg" p-id="2199" xmlns:xlink="http://www.w3.org/1999/xlink" width="200" height="200"><defs><style type="text/css"></style></defs><path d="M797.945 825.992a27.15 27.15 0 0 1-19.26-7.979l-560.42-560.418c-10.638-10.638-10.638-27.884 0-38.522 10.637-10.638 27.884-10.638 38.52 0l560.42 560.42c10.638 10.637 10.638 27.883 0 38.522a27.154 27.154 0 0 1-19.26 7.977z" p-id="2200"></path><path d="M237.525 825.992c-6.97 0-13.943-2.66-19.26-7.979-10.638-10.637-10.638-27.883 0-38.52l560.42-560.42c10.637-10.639 27.883-10.639 38.522 0 10.637 10.637 10.637 27.883 0 38.52l-560.42 560.422a27.16 27.16 0 0 1-19.262 7.977z" p-id="2201"></path></svg>