<?xml version="1.0" standalone="no"?><!DOCTYPE svg PUBLIC "-//W3C//DTD SVG 1.1//EN" "http://www.w3.org/Graphics/SVG/1.1/DTD/svg11.dtd"><svg t="1596432349313" class="icon" viewBox="0 0 1024 1024" version="1.1" xmlns="http://www.w3.org/2000/svg" p-id="1998" xmlns:xlink="http://www.w3.org/1999/xlink" width="200" height="200"><defs><style type="text/css"></style></defs><path d="M471.04 645.12V798.72c0 22.528 18.432 40.96 40.96 40.96s40.96-18.432 40.96-40.96v-153.6c24.576-14.336 40.96-40.96 40.96-71.68 0-45.056-36.864-81.92-81.92-81.92s-81.92 36.864-81.92 81.92c0 30.72 16.384 57.344 40.96 71.68zM225.28 368.64h573.44c45.056 0 81.92 36.864 81.92 81.92v450.56c0 45.056-36.864 81.92-81.92 81.92H225.28c-45.056 0-81.92-36.864-81.92-81.92V450.56c0-45.056 36.864-81.92 81.92-81.92zM716.8 327.68h-81.92v-81.92c0-67.584-55.296-122.88-122.88-122.88s-122.88 55.296-122.88 122.88v81.92h-81.92v-81.92c0-112.64 92.16-204.8 204.8-204.8s204.8 92.16 204.8 204.8v81.92z" p-id="1999"></path></svg>