<?xml version="1.0" standalone="no"?><!DOCTYPE svg PUBLIC "-//W3C//DTD SVG 1.1//EN" "http://www.w3.org/Graphics/SVG/1.1/DTD/svg11.dtd"><svg t="1615166337258" class="icon" viewBox="0 0 1171 1024" version="1.1" xmlns="http://www.w3.org/2000/svg" p-id="2274" xmlns:xlink="http://www.w3.org/1999/xlink" width="228.7109375" height="200"><defs><style type="text/css"></style></defs><path d="M1169.978754 73.547352C1169.978754 112.068602 1146.768378 146.660756 1118.133876 146.660756L51.846622 146.660756C23.217352 146.660756 0 112.068602 0 73.547352 0 35.020211 23.21212 0.428058 51.846622 0.428058L1118.133876 0.428058C1146.768378 0.428058 1169.978754 35.020211 1169.978754 73.547352L1169.978754 73.547352Z" p-id="2275"></path><path d="M1169.978754 511.970547C1169.978754 550.489833 1146.768378 585.08984 1118.133876 585.08984L51.846622 585.08984C23.217352 585.08984 0 550.489833 0 511.970547 0 473.45126 23.21212 438.857143 51.846622 438.857143L1118.133876 438.857143C1146.768378 438.857143 1169.978754 473.45126 1169.978754 511.970547L1169.978754 511.970547Z" p-id="2276"></path><path d="M1169.978754 950.886596C1169.978754 989.405883 1146.768378 1023.998037 1118.133876 1023.998037L51.846622 1023.998037C23.217352 1023.998037 0 989.405883 0 950.886596 0 912.359455 23.21212 877.767303 51.846622 877.767303L1118.133876 877.767303C1146.768378 877.767303 1169.978754 912.359455 1169.978754 950.886596L1169.978754 950.886596Z" p-id="2277"></path></svg>