<?xml version="1.0" standalone="no"?><!DOCTYPE svg PUBLIC "-//W3C//DTD SVG 1.1//EN" "http://www.w3.org/Graphics/SVG/1.1/DTD/svg11.dtd"><svg t="1596526401812" class="icon" viewBox="0 0 1024 1024" version="1.1" xmlns="http://www.w3.org/2000/svg" p-id="2177" xmlns:xlink="http://www.w3.org/1999/xlink" width="200" height="200"><defs><style type="text/css"></style></defs><path d="M74.2 482.7c9.7 10.4 19.4 20.8 29 31.2 23.3 25 46.5 49.9 69.8 74.9 28.1 30.2 56.3 60.4 84.4 90.6 24.3 26.1 48.7 52.2 73 78.3 11.8 12.7 23.3 25.8 35.5 38.1 0.2 0.2 0.3 0.4 0.5 0.5 8.5 9.2 23.9 8.4 32.5 0 4.9-4.8 9.8-9.6 14.8-14.4 13.4-13.1 26.8-26.1 40.2-39.2l59.4-57.9c24.2-23.6 48.4-47.1 72.5-70.7l79.5-77.4c26.7-26.1 53.5-52.1 80.2-78.2 24.9-24.3 49.9-48.6 74.8-72.9 21.2-20.6 42.3-41.3 63.5-61.9 15.1-14.8 30.3-29.5 45.4-44.3 7.2-7 14.5-13.9 21.5-21l0.9-0.9c8.6-8.4 9.1-24.2 0-32.5-9.3-8.5-23.3-9-32.5 0-4.9 4.8-9.8 9.6-14.8 14.4-13.4 13.1-26.8 26.1-40.2 39.2l-59.4 57.9c-24.2 23.6-48.4 47.1-72.5 70.7l-79.5 77.4c-26.7 26.1-53.5 52.1-80.2 78.2-24.9 24.3-49.9 48.6-74.8 72.9-21.2 20.6-42.3 41.3-63.5 61.9-15.1 14.8-30.3 29.5-45.4 44.3-7.2 7-14.5 13.8-21.5 21l-0.9 0.9h32.5c-9.7-10.4-19.4-20.8-29-31.2-23.3-25-46.5-49.9-69.8-74.9-28.1-30.2-56.3-60.4-84.4-90.6-24.3-26.1-48.7-52.2-73-78.3-11.8-12.7-23.3-25.8-35.5-38.1-0.2-0.2-0.3-0.4-0.5-0.5-8.2-8.8-24.3-8.9-32.5 0-8.7 9.4-8.8 23.1 0 32.5z" p-id="2178"></path></svg>