<?xml version="1.0" standalone="no"?><!DOCTYPE svg PUBLIC "-//W3C//DTD SVG 1.1//EN" "http://www.w3.org/Graphics/SVG/1.1/DTD/svg11.dtd"><svg t="1596188446076" class="icon" viewBox="0 0 1024 1024" version="1.1" xmlns="http://www.w3.org/2000/svg" p-id="8117" xmlns:xlink="http://www.w3.org/1999/xlink" width="200" height="200"><defs><style type="text/css"></style></defs><path d="M810.821818 217.791451c47.049551 0 85.542642 29.429901 85.542642 65.402511v457.821969c0 35.972611-38.493091 65.403389-85.542642 65.40339H212.025962c-47.049551 0-85.541763-29.430779-85.541763-65.40339V283.193962c0-35.972611 38.492213-65.402511 85.541763-65.402511H810.821818m0-65.403389H212.025962c-94.093832 0-171.084405 58.864192-171.084405 130.8059v457.821969c0 71.945221 76.989695 130.805901 171.084405 130.805901H810.821818c94.099101 0 171.083527-58.860679 171.083527-130.805901V283.193962c0-71.941708-76.985304-130.805901-171.083527-130.8059z m0 0" p-id="8118"></path><path d="M475.572473 659.262792l161.872796-114.45615c22.891581-16.34975 22.891581-50.686244 0-67.039506l-161.872796-114.452639c-27.798175-19.622861-65.403389 0-65.403389 34.335616v228.909667c0 32.703012 37.605214 52.32236 65.403389 32.703012z m0 0" p-id="8119"></path></svg>