<?xml version="1.0" standalone="no"?><!DOCTYPE svg PUBLIC "-//W3C//DTD SVG 1.1//EN" "http://www.w3.org/Graphics/SVG/1.1/DTD/svg11.dtd"><svg t="1596188302476" class="icon" viewBox="0 0 1024 1024" version="1.1" xmlns="http://www.w3.org/2000/svg" p-id="1996" xmlns:xlink="http://www.w3.org/1999/xlink" width="200" height="200"><defs><style type="text/css"></style></defs><path d="M1009.5616 454.10304c-72.26368 88.02304-200.04864 233.33888-200.04864 233.33888 0 0 20.89984 159.54944 32.6144 268.53376 5.08928 55.51104-34.92864 79.5136-80.25088 57.87648-86.24128-43.32544-217.47712-110.44864-246.99904-125.57312-30.04416 14.97088-162.60096 80.98816-249.73312 124.2112-45.84448 21.58592-86.34368-2.41664-81.19296-57.82528 11.86816-108.82048 32.98304-268.21632 32.98304-268.21632 0 0-129.24928-145.00864-202.35264-232.91904-25.83552-31.92832-9.24672-77.312 41.69728-85.6576 103.8848-19.64032 264.9088-50.944 264.9088-50.944 0 0 88.07424-162.33472 143.80032-261.75488 30.6688-60.49792 51.88608-53.51424 55.51104-51.73248 9.45152 3.25632 24.3712 15.02208 43.84768 51.78368 55.0912 99.57376 142.17216 262.12352 142.17216 262.12352 0 0 159.1296 31.30368 261.80608 50.9952C1018.65472 376.73984 1035.08992 422.17472 1009.5616 454.10304L1009.5616 454.10304z" p-id="1997"></path></svg>